<svg xmlns="http://www.w3.org/2000/svg" xmlns:se="http://www.vector-paint.com" xmlns:xlink="http://www.w3.org/1999/xlink" width="500" height="500"><title>my vector image</title><!-- Created with Vector Paint - http://www.vector-paint.com/ https://chrome.google.com/webstore/detail/hnbpdiengicdefcjecjbnjnoifekhgdo --><g opacity="1"><title>Layer 1</title><path fill="#0fef0f" d="M207.5,177 C287.5,305 310.5,149 310,149 C309.5,149 393.5,251 393,251 C392.5,251 273.5,371 273,371 C272.5,371 103.5,275 103,275 C102.5,275 207.5,177 207.5,177 z" id="svg_1" stroke-width="10" stroke-dashoffset="" fill-rule="nonzero" fill-opacity="1" stroke="none" stroke-opacity="1"></path><path fill="#0fef0f" d="M 222.5 74 C 222.5 74 304.5 172 303.5 179 C 302.5 186 191.5 171 191 171 C 190.5 171 158.5 103 158 103 C 157.5 103 246.5 158 246 158 C 245.5 158 306.5 117 306 117 C 305.5 117 287.5 168 287 168" id="svg_2" stroke-width="10" stroke-dashoffset="" fill-rule="nonzero" fill-opacity="1" stroke="none" stroke-opacity="1" transform="rotate(-16.3656 232 127.431)"></path></g></svg>