<svg xmlns="http://www.w3.org/2000/svg" xmlns:se="http://www.vector-paint.com" xmlns:xlink="http://www.w3.org/1999/xlink" width="500" height="500"><title>my vector image</title><!-- Created with Vector Paint - http://www.vector-paint.com/ https://chrome.google.com/webstore/detail/hnbpdiengicdefcjecjbnjnoifekhgdo --><g opacity="1"><title>Layer 1</title><path fill="#a8a8ef" d="M173.89749908447266,298.17071533203125 L173.89749908447266,206.1699981689453 L265.8975067138672,298.17071533203125 L173.89749908447266,298.17071533203125 z" id="svg_22" stroke-width="10" stroke-dashoffset="" fill-rule="nonzero" fill-opacity="1" stroke="none" stroke-opacity="1"></path><path fill="#a8a8ef" d="M 205.738 254.93 L 205.738 150.93 L 309.736 254.93 L 205.738 254.93 Z" id="svg_23" stroke-width="10" stroke-dashoffset="" fill-rule="nonzero" fill-opacity="1" stroke="none" stroke-opacity="1" transform="rotate(-90.0488 257.737 202.93)"></path><rect fill="#a8a8ef" x="195.4999971985817" y="168" width="108.0000028014183" height="12" id="svg_24" stroke-width="10" stroke-dashoffset="" fill-opacity="1" stroke="none" stroke-opacity="1"></rect><rect fill="#a8a8ef" x="195.5" y="175" width="7.000000208616257" height="75.00000178813934" id="svg_25" stroke-width="10" stroke-dashoffset="" fill-opacity="1" stroke="none" stroke-opacity="1"></rect><path fill="#a8a8ef" d="M 188.848 209.058 L 188.848 178.352 L 231.667 209.058 L 188.848 209.058 Z" id="svg_26" stroke-width="10" stroke-dashoffset="" fill-rule="nonzero" fill-opacity="1" stroke="none" stroke-opacity="1" transform="rotate(-91.5214 210.258 193.705)"></path><path fill="#a8a8ef" stroke-width="10" stroke-dashoffset="" fill-rule="nonzero" d="M269.5,181 L205.5,240 " id="svg_28" fill-opacity="1" stroke="none" stroke-opacity="1"></path><path fill="#a8a8ef" stroke-width="10" stroke-dashoffset="" fill-rule="nonzero" d="M241.5,181 L238.5,229 " id="svg_29"></path><path fill="#a8a8ef" stroke-width="10" stroke-dashoffset="" fill-rule="nonzero" d="M247.5,194 L186.5,208 " id="svg_30"></path><path fill="#a8a8ef" stroke-width="10" stroke-dashoffset="" fill-rule="nonzero" d="M404.5,130L333.5,330" id="svg_31"></path><path fill="#a8a8ef" d="M252.50250244140625,287.7650146484375 L252.50250244140625,248.76441955566406 L291.50250244140625,287.7650146484375 L252.50250244140625,287.7650146484375 z" id="svg_32" stroke-width="10" stroke-dashoffset="" fill-rule="nonzero"></path><path fill="#a8a8ef" d="M278.74786376953125,277.92999267578125 L278.74786376953125,253.92999267578125 L302.74749755859375,277.92999267578125 L278.74786376953125,277.92999267578125 z" id="svg_33" stroke-width="10" stroke-dashoffset="" fill-rule="nonzero"></path><path fill="#a8a8ef" d="M263.5274963378906,200.2949981689453 L263.5274963378906,174.2949981689453 L289.5274963378906,200.2949981689453 L263.5274963378906,200.2949981689453 z" id="svg_34" stroke-width="10" stroke-dashoffset="" fill-rule="nonzero" fill-opacity="1" stroke="none" stroke-opacity="1"></path><path fill="#a8a8ef" d="M 222.758 212.635 L 222.758 180.636 L 258.679 212.635 L 222.758 212.635 Z" id="svg_36" stroke-width="10" stroke-dashoffset="" fill-rule="nonzero" fill-opacity="1" stroke="none" stroke-opacity="1" transform="rotate(-90.6043 240.718 196.636)"></path></g></svg>