<svg xmlns="http://www.w3.org/2000/svg" xmlns:se="http://www.vector-paint.com" xmlns:xlink="http://www.w3.org/1999/xlink" width="500" height="500"><title>my vector image</title><!-- Created with Vector Paint - http://www.vector-paint.com/ https://chrome.google.com/webstore/detail/hnbpdiengicdefcjecjbnjnoifekhgdo --><g opacity="1"><title>Layer 1</title><path fill="#159615" stroke-width="10" stroke-dashoffset="" fill-rule="nonzero" d="M121.5,231.5 C121.5,209.6768035888672 139.40054321289062,192 161.5,192 C183.59945678710938,192 201.5,209.6768035888672 201.5,231.5 C201.5,253.32321166992188 183.59945678710938,271 161.5,271 C139.40054321289062,271 121.5,253.32321166992188 121.5,231.5 z" id="svg_22" fill-opacity="1" stroke="none" stroke-opacity="1"></path><path fill="#159615" stroke-width="10" stroke-dashoffset="" fill-rule="nonzero" d="M278.5,232.5 C278.5,219.51658630371094 289.6878356933594,209 303.5,209 C317.3121643066406,209 328.5,219.51658630371094 328.5,232.5 C328.5,245.48342895507812 317.3121643066406,256 303.5,256 C289.6878356933594,256 278.5,245.48342895507812 278.5,232.5 z" id="svg_23" fill-opacity="1" stroke="none" stroke-opacity="1"></path><path fill="#ffffff" stroke-width="10" stroke-dashoffset="" fill-rule="nonzero" d="M124.5,97C124.5,67.71823 146.42818,44 173.5,44C200.57182,44 222.5,67.71823 222.5,97C222.5,126.28177 200.57182,150 173.5,150C146.42818,150 124.5,126.28177 124.5,97z" id="svg_24" fill-opacity="1" stroke="none" stroke-opacity="1"></path><path fill="none" stroke="#24873d" stroke-width="10" stroke-dashoffset="" fill-rule="nonzero" d="M266.5,233 C266.5,213.11050415039062 283.5055236816406,197 304.5,197 C325.4944763183594,197 342.5,213.11050415039062 342.5,233 C342.5,252.88949584960938 325.4944763183594,269 304.5,269 C283.5055236816406,269 266.5,252.88949584960938 266.5,233 z" id="svg_2" fill-opacity="1" stroke-opacity="1"></path><path fill="#ffffff" stroke="#24873d" d="M203.29249572753906,221.06878662109375 L222.46136474609375,221.06878662109375 L222.46136474609375,201.89999389648438 L242.12387084960938,201.89999389648438 L242.12387084960938,221.06878662109375 L261.2925109863281,221.06878662109375 L261.2925109863281,240.73147583007812 L242.12387084960938,240.73147583007812 L242.12387084960938,259.9009094238281 L222.46136474609375,259.9009094238281 L222.46136474609375,240.73147583007812 L203.29249572753906,240.73147583007812 L203.29249572753906,221.06878662109375 z" id="svg_1" stroke-width="10" stroke-dashoffset="" fill-rule="nonzero" fill-opacity="1" stroke-opacity="1"></path></g></svg>