<svg xmlns="http://www.w3.org/2000/svg" xmlns:se="http://www.vector-paint.com" xmlns:xlink="http://www.w3.org/1999/xlink" width="500" height="500"><title>my vector image</title><!-- Created with Vector Paint - http://www.vector-paint.com/ https://chrome.google.com/webstore/detail/hnbpdiengicdefcjecjbnjnoifekhgdo --><g opacity="1"><title>Layer 1</title><rect fill="#ef0f0f" x="149.5" y="244" width="57" height="47" id="svg_7" stroke-width="10" stroke-dashoffset=""></rect><rect fill="#ef0f0f" x="168.5" y="172" width="17" height="84" id="svg_8" stroke-width="10" stroke-dashoffset=""></rect><rect fill="#ef0f0f" x="179.5" y="210" width="98" height="39" id="svg_9" stroke-width="10" stroke-dashoffset=""></rect><rect fill="#ef0f0f" x="234.5" y="247" width="32" height="83" id="svg_10" stroke-width="10" stroke-dashoffset=""></rect><rect fill="#ef0f0f" x="255.5" y="276" width="82" height="33" id="svg_11" stroke-width="10" stroke-dashoffset="" fill-opacity="1" stroke="none" stroke-opacity="1"></rect><rect fill="#ef0f0f" x="256.5" y="249" width="61" height="37" id="svg_12" stroke-width="10" stroke-dashoffset=""></rect><rect fill="#ef0f0f" x="284.5" y="175" width="16" height="85" id="svg_13" stroke-width="10" stroke-dashoffset=""></rect><rect fill="#ef0f0f" x="239.5" y="216" width="50" height="46" id="svg_14" stroke-width="10" stroke-dashoffset=""></rect><rect fill="#ef0f0f" x="187.5" y="267" width="67" height="11" id="svg_15" stroke-width="10" stroke-dashoffset=""></rect><rect fill="#ef0f0f" x="178.5" y="191" width="116" height="8" id="svg_16" stroke-width="10" stroke-dashoffset=""></rect><rect fill="#ef0f0f" x="264.5" y="210" width="24" height="6" id="svg_17" stroke-width="10" stroke-dashoffset=""></rect><rect fill="#ef0f0f" x="206.5" y="197" width="9" height="20" id="svg_18" stroke-width="10" stroke-dashoffset=""></rect><rect fill="#ef0f0f" x="245.5" y="198" width="7" height="19" id="svg_19" stroke-width="10" stroke-dashoffset=""></rect><rect fill="#ef0f0f" x="270.5" y="196" width="6" height="16" id="svg_20" stroke-width="10" stroke-dashoffset=""></rect><rect fill="#ef0f0f" x="227.5" y="197" width="7" height="20" id="svg_21" stroke-width="10" stroke-dashoffset=""></rect></g></svg>