<svg xmlns="http://www.w3.org/2000/svg" xmlns:se="http://www.vector-paint.com" xmlns:xlink="http://www.w3.org/1999/xlink" width="500" height="500"><title>my vector image</title><!-- Created with Vector Paint - http://www.vector-paint.com/ https://chrome.google.com/webstore/detail/hnbpdiengicdefcjecjbnjnoifekhgdo --><g opacity="1"><title>Layer 1</title><path fill="#79eb79" stroke-width="63" stroke-dashoffset="" fill-rule="nonzero" d="M217.89999389648438,181 C217.89999389648438,163.87292861938477 230.87789916992188,150 246.89999389648438,150 C262.9220886230469,150 275.8999938964844,163.87292861938477 275.8999938964844,181 C275.8999938964844,198.12708282470703 262.9220886230469,212 246.89999389648438,212 C230.87789916992188,212 217.89999389648438,198.12708282470703 217.89999389648438,181 z" id="svg_2" fill-opacity="1" stroke="none" stroke-opacity="1"></path><path fill="#79eb79" stroke-width="63" stroke-dashoffset="" fill-rule="nonzero" d="M168.89999389648438,228 C168.89999389648438,209.76795959472656 184.11546325683594,195 202.89999389648438,195 C221.6845245361328,195 236.89999389648438,209.76795959472656 236.89999389648438,228 C236.89999389648438,246.23204040527344 221.6845245361328,261 202.89999389648438,261 C184.11546325683594,261 168.89999389648438,246.23204040527344 168.89999389648438,228 z" id="svg_5" fill-opacity="1" stroke="none" stroke-opacity="1"></path><path fill="#79eb79" stroke-width="63" stroke-dashoffset="" fill-rule="nonzero" d="M228.89999389648438,257 C228.89999389648438,237.6629867553711 242.99668884277344,222 260.3999938964844,222 C277.8033142089844,222 291.8999938964844,237.6629867553711 291.8999938964844,257 C291.8999938964844,276.33702087402344 277.8033142089844,292 260.3999938964844,292 C242.99668884277344,292 228.89999389648438,276.33702087402344 228.89999389648438,257 z" id="svg_6" fill-opacity="1" stroke="none" stroke-opacity="1"></path><path fill="#79eb79" stroke-width="63" stroke-dashoffset="" fill-rule="nonzero" d="M269.8999938964844,214 C269.8999938964844,201.2928237915039 280.19281005859375,191 292.8999938964844,191 C305.607177734375,191 315.8999938964844,201.2928237915039 315.8999938964844,214 C315.8999938964844,226.70718383789062 305.607177734375,237 292.8999938964844,237 C280.19281005859375,237 269.8999938964844,226.70718383789062 269.8999938964844,214 z" id="svg_7" fill-opacity="1" stroke="none" stroke-opacity="1"></path><path fill="#79eb79" stroke-width="63" stroke-dashoffset="" fill-rule="nonzero" d="M172.89999389648438,239 C172.89999389648438,234.58010864257812 182.74530029296875,231 194.89999389648438,231 C207.0546875,231 216.89999389648438,234.58010864257812 216.89999389648438,239 C216.89999389648438,243.41989135742188 207.0546875,247 194.89999389648438,247 C182.74530029296875,247 172.89999389648438,243.41989135742188 172.89999389648438,239 z" id="svg_8" fill-opacity="1" stroke="none" stroke-opacity="1"></path><path fill="#79eb79" stroke-width="63" stroke-dashoffset="" fill-rule="nonzero" d="M296.8999938964844,247 C296.8999938964844,236.5027618408203 306.29779052734375,228 317.8999938964844,228 C329.502197265625,228 338.8999938964844,236.5027618408203 338.8999938964844,247 C338.8999938964844,257.4972381591797 329.502197265625,266 317.8999938964844,266 C306.29779052734375,266 296.8999938964844,257.4972381591797 296.8999938964844,247 z" id="svg_9" fill-opacity="1" stroke="none" stroke-opacity="1"></path><path fill="#79eb79" stroke="#ffffff" stroke-width="63" stroke-dashoffset="" fill-rule="nonzero" d="M248.89999389648438,166 L247.89999389648438,174 " id="svg_1" fill-opacity="1" stroke-opacity="1"></path><path fill="#79eb79" stroke="#ffffff" stroke-width="63" stroke-dashoffset="" fill-rule="nonzero" d="M 188.402 229.339 L 181.91 234.985" id="svg_3" fill-opacity="1" stroke-opacity="1" transform="rotate(-144.117 185.156 232.162)"></path><path fill="#79eb79" stroke="#ffffff" stroke-width="63" stroke-dashoffset="" fill-rule="nonzero" d="M240.89999389648438,255 L247.89999389648438,255 " id="svg_4" fill-opacity="1" stroke-opacity="1"></path><path fill="#79eb79" stroke="#ffffff" stroke-width="63" stroke-dashoffset="" fill-rule="nonzero" d="M 259.623 257.997 L 261.718 250.79" id="svg_10" fill-opacity="1" stroke-opacity="1" transform="rotate(-14.2359 260.67 254.394)"></path><path fill="#79eb79" stroke="#ffffff" stroke-width="63" stroke-dashoffset="" fill-rule="nonzero" d="M326.8999938964844,239 L328.8999938964844,246 " id="svg_12" fill-opacity="1" stroke-opacity="1"></path></g><g opacity="1" display="none"><title>Layer 2</title></g></svg>