<svg xmlns="http://www.w3.org/2000/svg" xmlns:se="http://www.vector-paint.com" xmlns:xlink="http://www.w3.org/1999/xlink" width="500" height="500"><title>my vector image</title><!-- Created with Vector Paint - http://www.vector-paint.com/ https://chrome.google.com/webstore/detail/hnbpdiengicdefcjecjbnjnoifekhgdo --><g opacity="1"><title>Layer 1</title><path fill="none" stroke="#9e293a" stroke-width="10" stroke-dashoffset="" fill-rule="nonzero" d="M149.5,219 C149.5,167.6187858581543 192.01380920410156,126 244.5,126 C296.98619079589844,126 339.5,167.6187858581543 339.5,219 C339.5,270.38121032714844 296.98619079589844,312 244.5,312 C192.01380920410156,312 149.5,270.38121032714844 149.5,219 z" id="svg_5" fill-opacity="1" stroke-opacity="1"></path><path fill="none" stroke="#9e293a" stroke-width="10" stroke-dashoffset="" fill-rule="nonzero" d="M185.5,216 C185.5,180.08839416503906 212.79833984375,151 246.5,151 C280.20166015625,151 307.5,180.08839416503906 307.5,216 C307.5,251.91160583496094 280.20166015625,281 246.5,281 C212.79833984375,281 185.5,251.91160583496094 185.5,216 z" id="svg_6" fill-opacity="1" stroke-opacity="1"></path><path fill="#9e293a" stroke="#9e293a" stroke-width="10" stroke-dashoffset="" fill-rule="nonzero" d="M206.5,214 C206.5,193.55801391601562 223.95303344726562,177 245.5,177 C267.0469665527344,177 284.5,193.55801391601562 284.5,214 C284.5,234.44198608398438 267.0469665527344,251 245.5,251 C223.95303344726562,251 206.5,234.44198608398438 206.5,214 z" id="svg_7" fill-opacity="1" stroke-opacity="1"></path><path fill="#ffffff" stroke="#9e293a" stroke-width="10" stroke-dashoffset="" fill-rule="nonzero" d="M222.5,215 C222.5,201.74032592773438 232.79281616210938,191 245.5,191 C258.2071838378906,191 268.5,201.74032592773438 268.5,215 C268.5,228.25967407226562 258.2071838378906,239 245.5,239 C232.79281616210938,239 222.5,228.25967407226562 222.5,215 z" id="svg_9" fill-opacity="1" stroke-opacity="1"></path></g></svg>