<svg xmlns="http://www.w3.org/2000/svg" xmlns:se="http://www.vector-paint.com" xmlns:xlink="http://www.w3.org/1999/xlink" width="500" height="500"><title>my vector image</title><!-- Created with Vector Paint - http://www.vector-paint.com/ https://chrome.google.com/webstore/detail/hnbpdiengicdefcjecjbnjnoifekhgdo --><g opacity="1"><title>Layer 1</title><path fill="#a8a8ef" stroke="#eb7979" stroke-width="10" stroke-dashoffset="" fill-rule="nonzero" d="M154.5,171 L154.5,295 " id="svg_1"></path><path fill="none" stroke="#eb7979" id="svg_2" d="M152.5,175 C153.5,175 153.5,174 154.5,174 C155.5,174 155.5,173 156.5,173 C157.5,173 158.32374572753906,171.51373291015625 160.5,171 C161.47325134277344,170.77024841308594 163.3527374267578,169.82689666748047 164.5,169 C166.31399536132812,167.6925506591797 170.5,167 173.5,165 C176.5,163 179.5,162 182.5,161 C185.5,160 190.57179260253906,159.30874633789062 195.5,158 C198.55633544921875,157.18834686279297 202.42579650878906,156.50244903564453 207.5,156 C214.46592712402344,155.3102264404297 221.5,155 228.5,155 C232.5,155 237.5,155 243.5,155 C249.5,155 254.5,155 257.5,155 C259.5,155 262.5874328613281,154.79393768310547 267.5,157 C271.5796661376953,158.83203887939453 274.3237609863281,160.48625946044922 276.5,161 C277.4732360839844,161.22975158691406 279.6860046386719,161.6925506591797 281.5,163 C282.64727783203125,163.82689666748047 284.5267639160156,164.77024841308594 285.5,165 C287.6762390136719,165.51374053955078 288.1934509277344,167.45880126953125 289.5,168 C290.42388916015625,168.38268280029297 292.1173095703125,168.07611846923828 292.5,169 C293.04119873046875,170.30655670166016 290.5,170 288.5,170 C288.5,170 288.5,171 287.5,171 C286.5,171 286.42388916015625,171.61732482910156 285.5,172 C284.1934509277344,172.54119873046875 282.20709228515625,172.2928924560547 281.5,173 C280.79290771484375,173.7071075439453 280.8065490722656,174.45880126953125 279.5,175 C277.6522521972656,175.76536560058594 276.4870910644531,176.83981323242188 275.5,177 C272.37855529785156,177.5065460205078 271.3407287597656,178.6106414794922 268.5,180 C265.2610778808594,181.5841064453125 263.5,183 261.5,184 C259.5,185 258.62144470214844,186.4934539794922 255.5,187 C254.51290893554688,187.16018676757812 253.8065643310547,188.45880126953125 252.5,189 C251.5761260986328,189.3826904296875 250.31399536132812,190.6925506591797 248.5,192 C247.3527374267578,192.826904296875 245.5,194 243.5,195 C241.5,196 240.31399536132812,197.6925506591797 238.5,199 C237.3527374267578,199.826904296875 235.08114624023438,200.41885375976562 233.5,202 C231.91885375976562,203.58114624023438 231.6472625732422,205.173095703125 230.5,206 C228.68600463867188,207.3074493408203 227.5,207 226.5,208 C225.5,209 224.31399536132812,208.6925506591797 222.5,210 C221.3527374267578,210.826904296875 220.5,212 219.5,212 C217.5,212 216.2071075439453,213.2928924560547 215.5,214 C214.7928924560547,214.7071075439453 213.5,216 212.5,217 C211.5,218 209.67625427246094,219.4862518310547 207.5,220 C206.52674865722656,220.22975158691406 205.47325134277344,220.77024841308594 204.5,221 C202.32374572753906,221.5137481689453 200.5,223 198.5,224 C196.5,225 193.31399536132812,224.6925506591797 191.5,226 C189.20545959472656,227.65380859375 186.67625427246094,229.4862518310547 184.5,230 C182.55349731445312,230.45950317382812 179.5,231 177.5,231 C175.5,231 173.67625427246094,232.4862518310547 171.5,233 C169.55349731445312,233.45950317382812 168.11312866210938,234.9176025390625 165.5,236 C164.5761260986328,236.3826904296875 162.8065643310547,237.45880126953125 161.5,238 C160.5761260986328,238.3826904296875 160.67625427246094,238.4862518310547 158.5,239 C157.52674865722656,239.22975158691406 157.2071075439453,239.2928924560547 156.5,240 C155.7928924560547,240.7071075439453 154.1173095703125,241.0761260986328 154.5,242 C155.04119873046875,243.3065643310547 156.5,244 158.5,245 C160.5,246 161.79869079589844,247.9485321044922 163.5,249 C165.40211486816406,250.17556762695312 166.57843017578125,251.78985595703125 169.5,253 C171.56585693359375,253.855712890625 174.5,255 177.5,256 C180.5,257 184.5,258 187.5,259 C190.5,260 193.4077911376953,260.49623107910156 197.5,261 C201.47003173828125,261.4887390136719 206.5,261 210.5,261 C216.5,261 223.5,261 232.5,261 C238.5,261 243.5,261 249.5,261 C256.5,261 262.52520751953125,261.11866760253906 267.5,260 C271.5226593017578,259.09544372558594 275.5661315917969,259.3376770019531 281.5,258 C288.6018981933594,256.3990173339844 295.7540588378906,253.64276123046875 301.5,251 C306.7974853515625,248.56349182128906 313.697998046875,245.36703491210938 319.5,242 C325.7369689941406,238.38055419921875 328.1934509277344,234.45880126953125 329.5,235 C330.42388916015625,235.3826904296875 329.9595031738281,238.05349731445312 329.5,240 C328.98626708984375,242.17625427246094 328.01373291015625,243.82374572753906 327.5,246 C327.0404968261719,247.94650268554688 326.01373291015625,249.82374572753906 325.5,252 C325.2702331542969,252.97325134277344 324.2434997558594,254.7969970703125 323.5,256 C321.8374938964844,258.6899871826172 321.04119873046875,259.6934356689453 320.5,261 C320.1173095703125,261.9238739013672 319.8826904296875,263.0761260986328 319.5,264 C318.4176025390625,266.6131286621094 315.6755676269531,268.09788513183594 314.5,270 C313.9742736816406,270.85064697265625 313.5,272 312.5,273 C311.5,274 310.35064697265625,274.4742736816406 309.5,275 C307.597900390625,276.1755676269531 307.04119873046875,276.6934356689453 306.5,278 C306.1173095703125,278.9238739013672 304.5,279 303.5,279 C302.5,279 301.5,281 300.5,281 C298.5,281 297.6214294433594,282.4934539794922 294.5,283 C292.52581787109375,283.3203582763672 286.6762390136719,284.4862518310547 284.5,285 C282.5534973144531,285.4595031738281 281.41973876953125,285.3107452392578 278.5,286 C276.3237609863281,286.5137481689453 272.4197540283203,287.3107452392578 269.5,288 C267.32374572753906,288.5137481689453 264.4612579345703,289.5194549560547 261.5,290 C258.37855529785156,290.5065460205078 256.1899871826172,290.3374938964844 253.5,292 C252.2969970703125,292.7434997558594 248.48501586914062,292.75563049316406 246.5,293 C242.4077911376953,293.50376892089844 240.4197540283203,294.3107452392578 237.5,295 C235.32374572753906,295.5137481689453 231.5,296 228.5,296 C226.5,296 222.5,296 220.5,296 C218.5,296 216.5,296 213.5,296 C210.5,296 207.5,297 204.5,297 C201.5,297 198.5,297 195.5,297 C192.5,297 190.5,297 188.5,297 C186.5,297 184.5,297 183.5,297 C181.5,297 180.4238739013672,297.3826904296875 179.5,297 C178.1934356689453,296.45880126953125 176.5,296 174.5,296 C172.5,296 170.4238739013672,296.3826904296875 169.5,296 C168.1934356689453,295.45880126953125 167.5,295 166.5,295 C165.5,295 164.5,295 164.5,295 C163.5,295 162.5,295 161.5,295 C160.5,295 159.2071075439453,295.7071075439453 158.5,295 C157.7928924560547,294.2928924560547 157.5,294 156.5,294 L155.5,294 L155.5,293 L154.5,293 " stroke-width="10" stroke-dashoffset="" fill-rule="nonzero" fill-opacity="1" stroke-opacity="1"></path><path fill="#eb7979" stroke="#eb7979" stroke-width="10" stroke-dashoffset="" fill-rule="nonzero" d="M157.5,174 L207.5,218 " id="svg_3"></path><path fill="none" stroke="#eb7979" stroke-width="10" stroke-dashoffset="" fill-rule="nonzero" d="M202.5,210 L199.5,158 " id="svg_4"></path><path fill="none" stroke="#eb7979" stroke-width="10" stroke-dashoffset="" fill-rule="nonzero" d="M199.5,263 L156.5,289 " id="svg_5"></path><path fill="none" stroke="#eb7979" stroke-width="10" stroke-dashoffset="" fill-rule="nonzero" d="M200.5,264 L218.5,294 " id="svg_6"></path><rect fill="#eb7979" stroke="#eb7979" x="154.08163276497197" y="292.59183667873845" width="7.3469387755102105" height="1.632653061224488" id="svg_7" stroke-width="10" stroke-dashoffset="" fill-opacity="1" stroke-opacity="1"></rect><rect fill="#eb7979" stroke="#eb7979" x="154.89795920800188" y="172.18367349371619" width="2.4489795918367463" height="4.081632653061206" id="svg_8" stroke-width="10" stroke-dashoffset="" fill-opacity="1" stroke-opacity="1"></rect><path fill="#eb7979" stroke="#eb7979" d="M219.5,278 C248.5,277 270.5,284 270,284 C269.5,284 205.5,269 205,269 C204.5,269 305.5,272 305,272 C304.5,272 284.5,278 284,278 C283.5,278 219.5,278 219.5,278 z" id="svg_9" stroke-width="10" stroke-dashoffset="" fill-rule="nonzero" fill-opacity="1" stroke-opacity="1"></path><path fill="none" stroke="#eb7979" d="M229.5,283 C220.5,289 322.5,241 322,241 C321.5,241 308.5,276 308,276 C307.5,276 279.5,267 279,267 C278.5,267 311.5,251 311,251 C310.5,251 319.5,246 307.5,259 C295.5,272 287.5,269 288.5,268 C289.5,267 296.5,265 297.5,265 C298.5,265 216.5,290 216,290 C215.5,290 213.5,276 213,276 C212.5,276 258.5,285 258,285 C257.5,285 238.5,277 229.5,283 z" id="svg_10" stroke-width="10" stroke-dashoffset="" fill-rule="nonzero" fill-opacity="1" stroke-opacity="1"></path><path fill="none" stroke="#eb7979" id="svg_11" d="M236.5,288 C237.5,288 238.5,288 239.5,288 C241.5,288 241.5,288 242.5,288 C243.5,288 243.5,287 245.5,287 C247.5,287 248.5,287 247.5,287 C246.5,287 244.1899871826172,286.3374938964844 241.5,288 C240.2969970703125,288.7434997558594 239.4238739013672,288.6173095703125 238.5,289 C237.1934356689453,289.54119873046875 236.5,290 235.5,290 C234.5,290 234.47325134277344,289.77024841308594 233.5,290 C231.32374572753906,290.5137481689453 230.5,291 229.5,291 C228.5,291 227.2071075439453,291.7071075439453 226.5,291 C225.7928924560547,290.2928924560547 225.2071075439453,290.7071075439453 224.5,290 C223.7928924560547,289.2928924560547 224.04119873046875,288.3065643310547 223.5,287 C223.1173095703125,286.0761260986328 224.26536560058594,285.84776306152344 223.5,284 C222.95880126953125,282.6934356689453 221.5,282 221.5,282 C220.5,282 219.5,282 219.5,281 C219.5,280 218.7928924560547,278.7071075439453 219.5,278 C220.2071075439453,277.2928924560547 220.5761260986328,277.3826904296875 221.5,277 C222.8065643310547,276.45880126953125 223.5761260986328,276.3826904296875 224.5,276 C225.8065643310547,275.45880126953125 226.5,275 226.5,275 C229.5,275 229.5761260986328,275.3826904296875 230.5,275 C231.8065643310547,274.45880126953125 232.5,274 234.5,274 C235.5,274 236.5,274 236.5,274 C237.5,274 239.7928924560547,274.7071075439453 240.5,274 C241.2071075439453,273.2928924560547 241.52674865722656,273.22975158691406 242.5,273 C244.67625427246094,272.4862518310547 245.79869079589844,272.0514678955078 247.5,271 C249.40211486816406,269.8244323730469 250.65223693847656,269.76536560058594 252.5,269 C253.8065643310547,268.45880126953125 254.5,268 254.5,268 C255.5,268 256.5,268 257.5,267 C258.5,266 258.5,265 257.5,265 C257.5,265 256.5,265 255.5,265 C253.5,265 252.5,265 251.5,265 C250.5,265 249.5,265 248.5,265 C247.5,265 247.5,265 244.5,265 C242.5,265 242.5,266 241.5,266 C240.5,266 239.5,266 239.5,266 C239.5,267 239.2071075439453,267.2928924560547 238.5,268 C237.7928924560547,268.7071075439453 237.5,270 237.5,271 C237.5,272 237.5,273 237.5,274 C237.5,275 237.5,276 237.5,278 C237.5,279 237.5,280 237.5,281 C237.5,282 238.2071075439453,283.2928924560547 237.5,284 C236.7928924560547,284.7071075439453 235.5,284 234.5,284 C233.5,284 232.5,284 231.5,284 C230.5,284 230.5,284 230.5,283 L229.5,283 " stroke-width="10" stroke-dashoffset="" fill-rule="nonzero"></path><path fill="none" stroke="#eb7979" id="svg_12" d="M168.5,174 C169.5,174 170.5,174 171.5,174 C173.5,174 175.5,173 176.5,173 C178.5,173 178.7928924560547,172.7071075439453 179.5,172 C180.2071075439453,171.2928924560547 181.64935302734375,172.52572631835938 182.5,172 C184.40211486816406,170.82443237304688 184.5761260986328,170.38268280029297 185.5,170 C186.8065643310547,169.45880126953125 187.5761260986328,169.38268280029297 188.5,169 C189.8065643310547,168.45880126953125 190.7928924560547,167.7071075439453 191.5,167 C192.2071075439453,166.2928924560547 192.5,166 192.5,166 C192.5,165 192.5,164 193.5,164 C194.5,164 194.5,165 194.5,165 C194.5,166 194.04119873046875,166.6934356689453 193.5,168 C193.1173095703125,168.92388153076172 193.5,170 193.5,171 C193.5,172 192.5,172 192.5,173 C192.5,174 192.04119873046875,174.6934356689453 191.5,176 C191.1173095703125,176.9238739013672 191.04119873046875,177.6934356689453 190.5,179 C190.1173095703125,179.9238739013672 189.5,181 189.5,182 C189.5,183 189.5,185 189.5,186 C189.5,187 189.5,188 189.5,189 C189.5,190 189.7928924560547,191.2928924560547 190.5,192 C191.2071075439453,192.7071075439453 190.7928924560547,193.2928924560547 191.5,194 C192.2071075439453,194.7071075439453 193.1173095703125,194.0761260986328 193.5,195 C194.04119873046875,196.3065643310547 193.7928924560547,197.2928924560547 194.5,198 C195.2071075439453,198.7071075439453 194.5,200 195.5,200 C196.5,200 195.5,196 195.5,193 C195.5,191 194.5,189 194.5,186 C194.5,185 194.2071075439453,184.7071075439453 193.5,184 C192.7928924560547,183.2928924560547 193.08114624023438,181.58114624023438 191.5,180 C189.91885375976562,178.41885375976562 188.2071075439453,178.7071075439453 187.5,178 C186.7928924560547,177.2928924560547 186.4238739013672,177.3826904296875 185.5,177 C184.1934356689453,176.45880126953125 183.5,175 181.5,175 C180.5,175 179.5,175 178.5,175 C177.5,175 176.5,175 175.5,175 C174.5,175 173.5,175 172.5,175 C171.5,175 170.5,175 168.5,175 C167.5,175 166.7928924560547,176.2928924560547 167.5,177 C168.2071075439453,177.7071075439453 169.1934356689453,178.45880126953125 170.5,179 C171.4238739013672,179.3826904296875 171.7928924560547,180.2928924560547 172.5,181 C173.91421508789062,182.41421508789062 174.5761260986328,181.6173095703125 175.5,182 C176.8065643310547,182.54119873046875 177.5,184 179.5,185 C181.5,186 181.1173095703125,186.0761260986328 181.5,187 C182.04119873046875,188.3065643310547 184.32374572753906,189.4862518310547 186.5,190 C187.47325134277344,190.22975158691406 188.95880126953125,189.6934356689453 189.5,191 C189.8826904296875,191.9238739013672 189.7928924560547,192.2928924560547 190.5,193 C191.2071075439453,193.7071075439453 192.1173095703125,194.0761260986328 192.5,195 C193.04119873046875,196.3065643310547 194.1934356689453,197.45880126953125 195.5,198 C196.4238739013672,198.3826904296875 197.5,199 197.5,200 L197.5,201 L198.5,202 " stroke-width="10" stroke-dashoffset="" fill-rule="nonzero"></path><path fill="none" stroke="#eb7979" id="svg_13" d="M188.5,171 C188.5,170 187.2071075439453,169.7071075439453 186.5,169 C185.7928924560547,168.2928924560547 185.8826904296875,166.92388153076172 185.5,166 C184.95880126953125,164.6934356689453 184.2071075439453,164.7071075439453 183.5,164 C182.7928924560547,163.2928924560547 181.5,164 181.5,166 C181.5,167 181.5,168 181.5,169 C181.5,170 181.5,171 181.5,172 L181.5,173 " stroke-width="10" stroke-dashoffset="" fill-rule="nonzero"></path></g></svg>