<svg xmlns="http://www.w3.org/2000/svg" xmlns:se="http://www.vector-paint.com" xmlns:xlink="http://www.w3.org/1999/xlink" width="500" height="500"><title>my vector image</title><!-- Created with Vector Paint - http://www.vector-paint.com/ https://chrome.google.com/webstore/detail/hnbpdiengicdefcjecjbnjnoifekhgdo --><g opacity="1"><title>Layer 1</title><path fill="#eb46eb" stroke="#4a90d6" stroke-width="10" stroke-dashoffset="" fill-rule="nonzero" d="M155.5,154 L155.5,283 " id="svg_10"></path><path fill="#eb46eb" stroke="#4a90d6" stroke-width="10" stroke-dashoffset="" fill-rule="nonzero" d="M188.5,186 L188.5,333 " id="svg_11"></path><path fill="#eb46eb" stroke="#4a90d6" stroke-width="10" stroke-dashoffset="" fill-rule="nonzero" d="M218.5,128 L219.5,286 " id="svg_12"></path><path fill="#eb46eb" stroke="#4a90d6" stroke-width="10" stroke-dashoffset="" fill-rule="nonzero" d="M258.5,183 L258.5,327 " id="svg_13"></path><path fill="#4a90d6" stroke="#4a90d6" stroke-width="10" stroke-dashoffset="" fill-rule="nonzero" d="M285.5,126 L286.5,280 " id="svg_14" fill-opacity="1" stroke-opacity="1"></path><path fill="#eb46eb" stroke="#4a90d6" stroke-width="10" stroke-dashoffset="" fill-rule="nonzero" d="M311.5,183 L312.5,325 " id="svg_15"></path><path fill="#4a90d6" stroke="#4a90d6" stroke-width="10" stroke-dashoffset="" fill-rule="nonzero" d="M149.5,282 C149.5,277.5801086425781 152.1850814819336,274 155.5,274 C158.8149185180664,274 161.5,277.5801086425781 161.5,282 C161.5,286.4198913574219 158.8149185180664,290 155.5,290 C152.1850814819336,290 149.5,286.4198913574219 149.5,282 z" id="svg_16" fill-opacity="1" stroke-opacity="1"></path><path fill="#4a90d6" stroke="#4a90d6" stroke-width="10" stroke-dashoffset="" fill-rule="nonzero" d="M248.5,174 C248.5,169.02761840820312 252.52761840820312,165 257.5,165 C262.4723815917969,165 266.5,169.02761840820312 266.5,174 C266.5,178.97238159179688 262.4723815917969,183 257.5,183 C252.52761840820312,183 248.5,178.97238159179688 248.5,174 z" id="svg_17" fill-opacity="1" stroke-opacity="1"></path><path fill="#4a90d6" stroke="#4a90d6" stroke-width="10" stroke-dashoffset="" fill-rule="nonzero" d="M302.5,318 C302.5,313.0276184082031 306.5276184082031,309 311.5,309 C316.4723815917969,309 320.5,313.0276184082031 320.5,318 C320.5,322.9723815917969 316.4723815917969,327 311.5,327 C306.5276184082031,327 302.5,322.9723815917969 302.5,318 z" id="svg_19" fill-opacity="1" stroke-opacity="1"></path></g></svg>