<svg xmlns="http://www.w3.org/2000/svg" xmlns:se="http://www.vector-paint.com" xmlns:xlink="http://www.w3.org/1999/xlink" width="500" height="500"><title>my vector image</title><!-- Created with Vector Paint - http://www.vector-paint.com/ https://chrome.google.com/webstore/detail/hnbpdiengicdefcjecjbnjnoifekhgdo --><g opacity="1"><title>Layer 1</title><path fill="#eb46eb" stroke="#eb46eb" d="M106.5,321C227.5,183 196.5,302 196,302C195.5,302 300.5,174 300,174C299.5,174 291.5,297 291,297C290.5,297 381.5,133 381,133C380.5,133 105.5,309 105,309C104.5,309 106.5,321 106.5,321z" id="svg_1" stroke-width="10" stroke-dashoffset="" fill-rule="nonzero" fill-opacity="1" stroke-opacity="1"></path><path fill="#eb46eb" stroke="#eb46eb" stroke-width="10" stroke-dashoffset="" fill-rule="nonzero" d="M104.5,306L381.5,129" id="svg_2"></path><path fill="#eb46eb" stroke="#eb46eb" stroke-width="10" stroke-dashoffset="" fill-rule="nonzero" d="M377.5,126L98.5,307" id="svg_3"></path><path fill="none" stroke="#eb46eb" id="svg_4" d="M194.88373,303.48837C194.88373,303.25583 195.0343,303.02966 196.04651,302.79071C196.49919,302.68384 196.97673,302.32559 197.2093,302.09302C197.44186,301.86047 197.70915,301.75015 197.90698,301.6279C198.34933,301.35452 198.37209,301.16278 198.60464,300.93024L198.8372,300.69766" stroke-width="10" stroke-dashoffset="" fill-rule="nonzero"></path><path fill="#eb46eb" stroke="#eb46eb" stroke-width="10" stroke-dashoffset="" fill-rule="nonzero" d="M285.581404581666,297.6744242757559 C285.581404581666,297.5459147542715 288.7035969644785,297.44184981286526 292.55815018713474,297.44184981286526 C296.412703409791,297.44184981286526 299.5348957926035,297.5459147542715 299.5348957926035,297.6744242757559 C299.5348957926035,297.80290327966213 296.412703409791,297.9069682210684 292.55815018713474,297.9069682210684 C288.7035969644785,297.9069682210684 285.581404581666,297.80290327966213 285.581404581666,297.6744242757559 z" id="svg_7" fill-opacity="1" stroke-opacity="1"></path><path fill="#eb46eb" stroke="#eb46eb" stroke-width="10" stroke-dashoffset="" fill-rule="nonzero" d="M191.62791347503662,301.86046373844147 C191.62791347503662,301.2180382013321 194.02159023284912,300.6976829767227 196.97674465179443,300.6976829767227 C199.93189907073975,300.6976829767227 202.32557582855225,301.2180382013321 202.32557582855225,301.86046373844147 C202.32557582855225,302.50288927555084 199.93189907073975,303.0232445001602 196.97674465179443,303.0232445001602 C194.02159023284912,303.0232445001602 191.62791347503662,302.50288927555084 191.62791347503662,301.86046373844147 z" id="svg_9" fill-opacity="1" stroke-opacity="1"></path></g></svg>