<svg xmlns="http://www.w3.org/2000/svg" xmlns:se="http://www.vector-paint.com" xmlns:xlink="http://www.w3.org/1999/xlink" width="500" height="500"><title>my vector image</title><!-- Created with Vector Paint - http://www.vector-paint.com/ https://chrome.google.com/webstore/detail/hnbpdiengicdefcjecjbnjnoifekhgdo --><g opacity="1"><title>Layer 1</title><path fill="#ebeb79" stroke-width="63" stroke-dashoffset="" fill-rule="nonzero" d="M151.5,279 C151.5,267.3977966308594 198.93646240234375,258 257.5,258 C316.06353759765625,258 363.5,267.3977966308594 363.5,279 C363.5,290.6022033691406 316.06353759765625,300 257.5,300 C198.93646240234375,300 151.5,290.6022033691406 151.5,279 z" id="svg_13" fill-opacity="1" stroke="none" stroke-opacity="1"></path><path fill="#ebeb79" stroke-width="63" stroke-dashoffset="" fill-rule="nonzero" d="M182.5,235 C182.5,225.0552520751953 213.82595825195312,217 252.5,217 C291.1740417480469,217 322.5,225.0552520751953 322.5,235 C322.5,244.9447479248047 291.1740417480469,253 252.5,253 C213.82595825195312,253 182.5,244.9447479248047 182.5,235 z" id="svg_14" fill-opacity="1" stroke="none" stroke-opacity="1"></path><path fill="none" stroke="#ebeb79" id="svg_3" d="M229.5,221 C229.5,220 228.04119873046875,218.3065643310547 227.5,217 C227.1173095703125,216.0761260986328 226.5823974609375,215.61312866210938 225.5,213 C224.35194396972656,210.22836303710938 224.5,208 224.5,207 C224.5,206 224.5,205 224.5,202 C224.5,200 223.5,199 223.5,197 C223.5,196 223.5,195 223.5,194 C223.5,191 223.5,189 223.5,187 C223.5,186 223.5,185 223.5,182 C223.5,181 223.5,180 223.5,179 C223.5,178 222.35194396972656,176.77163696289062 223.5,174 C224.04119873046875,172.6934356689453 224.1173095703125,171.9238739013672 224.5,171 C225.04119873046875,169.6934356689453 226.08578491210938,170.41421508789062 227.5,169 C228.2071075439453,168.2928924560547 227.5761260986328,167.3826904296875 228.5,167 C229.8065643310547,166.45880126953125 230.5,164 230.5,164 C230.5,163 232.64935302734375,163.52572631835938 233.5,163 C235.40211486816406,161.82443237304688 233.97427368164062,160.85064697265625 234.5,160 C235.67556762695312,158.09788513183594 239.5,159 241.5,158 C243.5,157 244.1934356689453,156.54119873046875 245.5,156 C247.34776306152344,155.23463439941406 248.5,156 248.5,156 C249.5,156 250.5,156 250.5,156 C252.5,156 255.5,156 258.5,156 C259.5,156 260.7928924560547,155.2928924560547 261.5,156 C262.2071075439453,156.7071075439453 261.7928924560547,157.2928924560547 262.5,158 C263.2071075439453,158.7071075439453 262.9742736816406,158.14935302734375 263.5,159 C264.6755676269531,160.90211486816406 266.5,161 267.5,162 C268.5,163 268.79290771484375,164.2928924560547 269.5,165 C270.2071228027344,165.7071075439453 270.95880126953125,167.6934356689453 271.5,169 C271.8826904296875,169.9238739013672 272.5,171 272.5,173 C272.5,174 273.5,175 273.5,176 C273.5,177 273.5,178 273.5,179 C273.5,180 274.5,180 274.5,181 C274.5,182 274.5,184 274.5,186 C274.5,187 274.5,188 274.5,188 C274.5,189 274.5,190 274.5,191 C274.5,192 274.5,193 274.5,193 C274.5,195 274.5,196 274.5,197 C274.5,198 274.5,199 274.5,200 C274.5,201 274.5,203 274.5,203 C274.5,204 274.8826904296875,205.0761260986328 274.5,206 C273.95880126953125,207.3065643310547 273.5,208 273.5,209 C273.5,210 273.5,211 273.5,212 C273.5,213 272.5,213 272.5,214 C272.5,215 272.5,216 272.5,217 C272.5,218 271.5,218 271.5,219 C271.5,220 271.5,221 271.5,222 C271.5,223 272.2071228027344,224.2928924560547 271.5,225 C270.79290771484375,225.7071075439453 270.5,227 270.5,228 L270.5,229 " stroke-width="7" stroke-dashoffset="" fill-rule="nonzero" fill-opacity="1" stroke-opacity="1"></path><path fill="none" stroke="#ebeb79" id="svg_4" d="M230.5,240 C230.5,241 230.5,241 230.5,242 C230.5,244 230.5,245 230.5,246 C230.5,246 230.0137481689453,247.82374572753906 229.5,250 C229.27024841308594,250.97325134277344 229.2071075439453,250.2928924560547 228.5,251 C227.7928924560547,251.7071075439453 228.2071075439453,252.2928924560547 227.5,253 C226.08578491210938,254.41421508789062 227.40211486816406,257.8244323730469 225.5,259 C224.64935302734375,259.5257263183594 224.2071075439453,260.2928924560547 223.5,261 C222.7928924560547,261.7071075439453 223.5,263 222.5,263 L221.5,264 L221.5,265 L220.5,265 " stroke-width="7" stroke-dashoffset="" fill-rule="nonzero"></path><path fill="none" stroke="#ebeb79" id="svg_5" d="M267.5,245 C267.5,246 267.95880126953125,246.6934356689453 268.5,248 C268.8826904296875,248.9238739013672 268.734619140625,249.15223693847656 269.5,251 C270.04119873046875,252.3065643310547 270.5,253 270.5,254 C270.5,255 270.0857849121094,255.58578491210938 271.5,257 C272.20709228515625,257.7071075439453 272.5,258 274.5,260 C275.5,261 276.5,262 277.5,263 C278.5,264 279.5,264 279.5,265 L280.5,265 " stroke-width="7" stroke-dashoffset="" fill-rule="nonzero"></path><path fill="none" stroke="#ebeb79" id="svg_6" d="M211.5,292 C211.5,293 210.5,293 209.5,294 C208.5,295 208.5,297 207.5,298 C207.5,298 206.4238739013672,298.6173095703125 205.5,299 C204.1934356689453,299.54119873046875 203.5,301 202.5,301 C201.5,301 200.8065643310547,302.45880126953125 199.5,303 C198.5761260986328,303.3826904296875 197.31399536132812,302.6925354003906 195.5,304 C194.3527374267578,304.826904296875 195.2071075439453,305.29290771484375 194.5,306 C193.7928924560547,306.70709228515625 192.04119873046875,305.6934509277344 191.5,307 C191.1173095703125,307.92388916015625 190.8826904296875,308.07611083984375 190.5,309 C189.95880126953125,310.3065490722656 188.5,311 188.5,311 C188.5,312 188.5,313 188.5,314 C188.5,315 188.7928924560547,315.29290771484375 189.5,316 C190.2071075439453,316.70709228515625 190.7928924560547,317.29290771484375 191.5,318 C192.2071075439453,318.70709228515625 193.5,318 193.5,318 C194.5,318 195.5,319 196.5,319 C197.5,319 198.5,319 201.5,319 C202.5,319 203.5,319 204.5,319 C206.5,319 207.5,319 208.5,319 C209.5,319 211.5,319 212.5,319 C213.5,319 214.5,319 215.5,319 C216.5,319 217.5,319 218.5,318 C218.5,318 218.5,317 220.5,317 C221.5,317 223.5761260986328,315.3826904296875 224.5,315 C225.8065643310547,314.45880126953125 226.64935302734375,313.5257263183594 227.5,313 C229.40211486816406,311.8244323730469 228.5,311 229.5,310 C230.5,309 231.64935302734375,308.5257263183594 232.5,308 C234.40211486816406,306.8244323730469 234.95880126953125,305.3065490722656 235.5,304 C235.8826904296875,303.07611083984375 236.7928924560547,301.70709228515625 237.5,301 C238.2071075439453,300.29290771484375 239.1173095703125,299.92388916015625 239.5,299 C240.04119873046875,297.6934509277344 240.5,297 241.5,296 L241.5,296 L242.5,296 " stroke-width="7" stroke-dashoffset="" fill-rule="nonzero"></path><path fill="none" stroke="#ebeb79" id="svg_7" d="M287.5,293 C288.5,293 289.6860046386719,293.6925354003906 291.5,295 C292.64727783203125,295.826904296875 293.57611083984375,296.6173095703125 294.5,297 C295.8065490722656,297.54119873046875 296.95880126953125,297.6934509277344 297.5,299 C297.8826904296875,299.92388916015625 298.79290771484375,300.29290771484375 299.5,301 C300.20709228515625,301.70709228515625 299.5,303 300.5,304 C301.5,305 301.95880126953125,305.6934509277344 302.5,307 C302.8826904296875,307.92388916015625 302.79290771484375,307.29290771484375 303.5,308 C304.20709228515625,308.70709228515625 303.5,310 303.5,311 C303.5,312 303.5,313 303.5,314 C303.5,315 303.42388916015625,315.6173095703125 302.5,316 C301.1934509277344,316.54119873046875 301.5,318 300.5,318 C300.5,318 299.42388916015625,317.6173095703125 298.5,318 C297.1934509277344,318.54119873046875 296.6762390136719,319.48626708984375 294.5,320 C293.5267639160156,320.2297668457031 292.5,320 291.5,320 C289.5,320 288.5,320 287.5,320 C286.5,320 284.6762390136719,319.51373291015625 282.5,319 C280.5534973144531,318.5404968261719 279.8065490722656,318.54119873046875 278.5,318 C277.57611083984375,317.6173095703125 276.20709228515625,317.70709228515625 275.5,317 C274.79290771484375,316.29290771484375 274.20709228515625,315.70709228515625 273.5,315 C272.79290771484375,314.29290771484375 270.6755676269531,315.902099609375 269.5,314 C268.9742736816406,313.14935302734375 267.64727783203125,312.826904296875 266.5,312 C264.6860046386719,310.6925354003906 263.04119873046875,311.3065490722656 262.5,310 C262.1173095703125,309.07611083984375 261.5,309 260.5,308 C259.5,307 258.8826904296875,306.92388916015625 258.5,306 C257.95880126953125,304.6934509277344 257.2071075439453,305.70709228515625 256.5,305 C255.7928924560547,304.29290771484375 256.2071075439453,302.70709228515625 255.5,302 C254.7928924560547,301.29290771484375 255.2071075439453,300.70709228515625 254.5,300 C253.7928924560547,299.29290771484375 253.8826904296875,298.92388916015625 253.5,298 C252.95880126953125,296.6934509277344 252.5,296 251.5,294 L251.5,293 " stroke-width="7" stroke-dashoffset="" fill-rule="nonzero"></path><path fill="none" stroke="#ebeb79" id="svg_8" d="M226.5,316 C225.5,317 225.5,318 225.5,319 C225.5,320 225.95880126953125,320.6934509277344 226.5,322 C226.8826904296875,322.92388916015625 226.5,324 226.5,324 C226.5,326 227.5,327 227.5,327 C227.5,328 227.59788513183594,328.8244323730469 229.5,330 C230.35064697265625,330.5257263183594 231.5,331 232.5,331 C233.5,331 234.5,331 235.5,331 C236.5,331 237.5,331 238.5,331 C240.5,331 242.5,331 243.5,331 C243.5,331 244.5,331 245.5,331 C247.5,331 248.65223693847656,330.765380859375 250.5,330 C251.8065643310547,329.45880126953125 252.5,329 253.5,329 C254.5,329 256.5,328 257.5,328 C258.5,328 259.5,327 259.5,327 C261.5,326 262.1173095703125,325.92388916015625 262.5,325 C263.04119873046875,323.6934509277344 264.673095703125,324.14727783203125 265.5,323 C266.8074645996094,321.1860046386719 266.79290771484375,320.70709228515625 267.5,320 C268.9142150878906,318.5857849121094 267.5,317 268.5,316 L268.5,315 L268.5,314 " stroke-width="7" stroke-dashoffset="" fill-rule="nonzero"></path><path fill="none" stroke="#ebeb79" stroke-width="7" stroke-dashoffset="" fill-rule="nonzero" d="M249.5,159 L250.5,231 " id="svg_1"></path></g></svg>